<?xml version="1.0" standalone="no"?>
<!DOCTYPE svg PUBLIC "-//W3C//DTD SVG 20010904//EN"
 "http://www.w3.org/TR/2001/REC-SVG-20010904/DTD/svg10.dtd">
<svg version="1.0" xmlns="http://www.w3.org/2000/svg"
 width="640.000000pt" height="640.000000pt" viewBox="0 0 640.000000 640.000000"
 preserveAspectRatio="xMidYMid meet">
<metadata>
Created by potrace 1.11, written by Peter Selinger 2001-2013
</metadata>
<g transform="translate(0.000000,640.000000) scale(0.100000,-0.100000)"
fill="#000000" stroke="none">
<path d="M1565 4300 c-108 -12 -148 -21 -175 -38 -19 -12 -45 -22 -58 -22 -12
0 -32 -11 -44 -25 -12 -14 -30 -25 -40 -25 -10 0 -18 -4 -18 -9 0 -4 -13 -24
-30 -42 -16 -19 -30 -42 -30 -51 0 -10 -6 -18 -14 -18 -8 0 -17 -7 -20 -16 -8
-21 -8 -26 2 -20 17 10 4 -46 -17 -75 -29 -39 -41 -78 -49 -159 l-7 -65 -40
-3 c-22 -1 -51 -10 -65 -20 l-25 -17 43 -3 c23 -2 42 -6 42 -10 0 -15 -18 -34
-26 -30 -5 3 -40 2 -79 -2 -62 -7 -57 -8 48 -7 64 1 117 -1 117 -4 0 -3 -7
-14 -15 -25 -19 -25 -10 -155 16 -205 10 -20 15 -39 12 -42 -3 -4 -7 -37 -9
-74 -5 -85 -49 -237 -81 -280 -14 -20 -33 -33 -46 -33 -36 0 -72 -24 -73 -48
-1 -13 -11 -33 -22 -45 -14 -16 -21 -38 -22 -77 -4 -86 -2 -96 12 -82 10 10
10 15 -2 22 -8 5 -11 12 -8 16 4 3 15 -2 25 -11 21 -21 75 -45 101 -45 14 0
41 -34 93 -121 92 -150 210 -321 266 -384 l42 -47 69 12 c38 7 85 11 105 8 20
-2 37 -2 37 0 0 8 -90 108 -181 200 -78 79 -99 108 -116 155 -11 31 -18 57
-15 57 3 0 35 -20 71 -43 37 -24 86 -55 111 -68 25 -13 47 -27 48 -32 2 -4 8
-5 13 -1 5 3 31 -17 59 -44 27 -27 50 -47 50 -45 0 14 -25 51 -48 72 -17 15
-21 21 -9 17 22 -7 22 5 -3 52 -24 46 -54 74 -137 132 -35 24 -63 49 -63 57 0
8 -4 12 -9 9 -5 -3 -11 1 -14 9 -4 10 -1 12 11 8 33 -12 173 -106 203 -136 29
-29 31 -29 44 -10 8 11 17 33 20 49 13 55 35 94 55 94 10 0 27 3 37 6 13 4 14
3 5 -4 -20 -14 68 -23 111 -11 38 10 72 49 43 49 -8 0 -18 5 -21 11 -7 10 8
25 59 61 13 9 26 25 28 35 4 15 -1 18 -21 17 -37 -1 -80 17 -74 33 3 7 20 13
38 13 18 0 48 11 69 25 39 26 56 25 56 -2 0 -9 14 5 31 30 17 26 34 47 38 47
12 0 30 46 23 57 -4 6 -17 13 -29 17 -30 10 -75 70 -66 92 4 10 0 22 -11 30
-20 14 -14 34 10 34 12 0 13 8 7 38 -4 20 -8 53 -8 72 0 31 3 35 27 38 21 3
27 -1 30 -20 2 -13 9 -22 16 -21 6 2 12 -5 12 -15 0 -25 19 -42 47 -42 30 0
31 28 1 39 -21 7 -20 9 11 24 19 10 44 14 57 11 20 -5 26 -1 35 25 6 17 17 31
25 31 23 0 16 30 -9 39 -13 5 -35 7 -50 4 -19 -4 -29 0 -33 11 -5 13 -10 14
-20 5 -19 -15 -88 7 -80 27 3 8 0 14 -7 14 -8 0 -8 3 -2 8 6 4 16 19 22 34 8
18 18 26 27 22 8 -3 17 0 21 6 5 8 11 7 23 -2 9 -7 13 -8 9 -2 -10 17 27 46
47 38 15 -6 17 -15 12 -53 -4 -29 -3 -41 2 -32 8 10 13 8 26 -10 16 -22 18
-23 27 -6 5 9 22 17 37 18 27 1 27 1 3 8 -34 9 -37 29 -7 37 27 6 35 29 14 37
-7 3 2 8 20 12 17 4 32 14 32 21 0 17 -17 18 -23 2 -4 -8 -6 -9 -6 -2 -1 6 6
17 14 24 8 7 15 8 15 3 0 -11 59 -11 75 -1 6 3 19 0 30 -8 17 -13 13 -14 -38
-14 -31 0 -57 -4 -57 -10 0 -6 29 -10 66 -10 41 0 63 4 59 10 -4 6 6 10 22 11
27 1 27 1 -7 12 -19 6 -41 17 -49 25 -10 9 -17 10 -24 3 -15 -15 -44 -14 -50
2 -3 6 -6 3 -7 -8 -3 -46 -22 32 -21 88 1 44 -5 69 -24 105 -14 26 -25 40 -25
32 -1 -8 -10 3 -22 25 -11 22 -32 50 -47 63 -26 23 -26 23 -2 16 34 -9 18 12
-27 36 -20 10 -54 34 -74 52 -62 56 -78 68 -88 68 -5 0 -28 20 -50 44 -44 47
-124 82 -166 72 -12 -3 -25 -2 -29 4 -8 12 -79 10 -250 -10z m592 -226 c-3 -3
-12 -4 -19 -1 -8 3 -5 6 6 6 11 1 17 -2 13 -5z m-82 -134 c3 -6 -1 -7 -9 -4
-18 7 -21 14 -7 14 6 0 13 -4 16 -10z m230 -70 c3 -5 1 -10 -4 -10 -6 0 -11 5
-11 10 0 6 2 10 4 10 3 0 8 -4 11 -10z m-315 -48 c0 -13 -12 -22 -22 -16 -10
6 -1 24 13 24 5 0 9 -4 9 -8z m83 -35 c-5 -8 -8 -7 -11 1 -2 7 -9 9 -14 6 -7
-4 -8 -2 -4 4 4 6 13 9 21 6 8 -4 12 -11 8 -17z m87 -153 c0 -20 -7 -17 -20 6
-9 16 -8 18 5 14 8 -4 15 -12 15 -20z m-45 6 c3 -5 1 -10 -4 -10 -6 0 -11 5
-11 10 0 6 2 10 4 10 3 0 8 -4 11 -10z m-245 -20 c-13 -8 -12 -10 3 -10 16 0
16 -2 3 -28 -13 -25 -19 -27 -55 -24 -23 2 -44 8 -47 13 -3 5 -19 9 -35 9 -37
0 -35 24 2 27 13 2 42 7 64 12 22 5 49 9 60 10 16 1 17 -1 5 -9z m-20 -110 c0
-5 -2 -10 -4 -10 -3 0 -8 5 -11 10 -3 6 -1 10 4 10 6 0 11 -4 11 -10z m-208
-90 c-2 -17 2 -35 9 -42 20 -20 83 -36 113 -31 14 3 33 0 41 -7 8 -7 26 -9 44
-5 17 3 38 2 48 -4 11 -6 13 -11 5 -11 -7 0 -11 -3 -9 -7 3 -5 -22 -6 -55 -5
-42 3 -58 1 -54 -7 4 -7 -1 -11 -13 -11 -10 0 -21 4 -23 8 -1 5 -29 4 -60 -3
-32 -6 -58 -8 -58 -4 0 9 19 15 75 25 l39 7 -44 13 c-25 7 -50 21 -57 31 -14
18 -17 65 -6 76 10 10 10 9 5 -23z m528 23 c-52 -17 -70 -21 -70 -17 0 8 43
23 65 23 13 -1 15 -2 5 -6z m-130 -13 c0 -13 -11 -13 -30 0 -12 8 -11 10 8 10
12 0 22 -4 22 -10z m-160 -137 c0 -5 -23 -32 -50 -60 -50 -54 -74 -62 -111
-42 -29 15 -9 36 44 44 27 5 50 17 66 36 24 27 51 39 51 22z m165 -233 c2 -4
-2 -14 -11 -21 -13 -10 -17 -10 -25 2 -5 8 -9 16 -9 19 0 9 39 9 45 0z m-38
-53 c-1 -5 -6 -8 -10 -8 -4 1 -17 1 -29 1 -18 0 -20 2 -9 9 18 12 52 10 48 -2z
m-1040 -128 c-2 -23 1 -23 -42 -5 -40 17 -48 30 -9 16 37 -14 51 -12 28 5 -18
14 -18 14 3 9 13 -4 21 -13 20 -25z m48 1 c3 -5 -1 -10 -9 -10 -8 0 -18 5 -21
10 -3 6 1 10 9 10 8 0 18 -4 21 -10z m40 -28 c-3 -3 -11 0 -18 7 -9 10 -8 11
6 5 10 -3 15 -9 12 -12z"/>
<path d="M2306 3967 c3 -10 9 -15 12 -12 3 3 0 11 -7 18 -10 9 -11 8 -5 -6z"/>
<path d="M6335 3869 c-4 -6 0 -9 11 -7 11 2 18 -2 17 -9 -2 -8 4 -10 14 -6 10
4 14 2 10 -4 -4 -6 -43 -14 -87 -17 -44 -4 -80 -11 -80 -16 0 -4 -23 -11 -51
-15 -30 -4 -53 -13 -56 -22 -5 -12 -7 -12 -14 -1 -5 7 -9 18 -9 23 0 16 51 35
94 35 23 0 47 4 55 9 22 14 -21 23 -53 11 -35 -13 -69 -13 -61 0 9 14 -7 12
-30 -3 -11 -8 -44 -14 -73 -15 -33 -1 -64 -8 -83 -19 l-29 -19 48 1 c26 0 52
-3 58 -8 7 -4 14 -1 18 8 6 17 46 21 46 4 0 -6 -9 -13 -20 -16 -20 -5 -28 -23
-10 -23 6 0 10 -7 10 -15 0 -21 -16 -19 -40 5 -11 11 -20 15 -20 9 0 -6 -10
-9 -22 -7 -13 2 -22 9 -20 16 1 6 -5 12 -13 12 -8 0 -15 -7 -15 -15 0 -15 -53
-48 -63 -39 -3 3 -27 8 -53 11 -28 3 -53 12 -61 21 -11 16 -12 16 -13 0 0 -9
7 -21 17 -26 14 -8 13 -11 -7 -17 -12 -4 -25 -3 -29 1 -3 5 -28 10 -55 11 -33
2 -53 8 -59 18 -4 8 -13 13 -18 9 -6 -4 -5 -11 2 -21 18 -21 -4 -32 -53 -28
-21 2 -62 0 -91 -5 -28 -4 -56 -5 -62 -1 -19 14 -82 4 -113 -17 -36 -26 -46
-28 -38 -6 5 13 1 15 -21 9 -15 -3 -30 -11 -34 -16 -3 -5 -27 -7 -55 -4 -34 4
-44 2 -33 -4 10 -6 266 -11 662 -13 l647 -3 0 118 0 117 -29 0 c-17 0 -33 -5
-36 -11z"/>
<path d="M5858 3803 c6 -2 18 -2 25 0 6 3 1 5 -13 5 -14 0 -19 -2 -12 -5z"/>
<path d="M5681 3769 c-27 -22 -25 -31 7 -22 13 3 22 13 22 24 0 23 1 23 -29
-2z"/>
<path d="M5628 3763 c7 -3 16 -2 19 1 4 3 -2 6 -13 5 -11 0 -14 -3 -6 -6z"/>
<path d="M5860 3760 c0 -13 18 -22 24 -11 3 5 -1 11 -9 15 -8 3 -15 1 -15 -4z"/>
<path d="M5115 3730 c-3 -6 1 -7 9 -4 18 7 21 14 7 14 -6 0 -13 -4 -16 -10z"/>
<path d="M2498 3713 c7 -3 16 -2 19 1 4 3 -2 6 -13 5 -11 0 -14 -3 -6 -6z"/>
<path d="M2540 3711 c0 -17 120 -39 141 -26 18 12 -32 35 -52 24 -10 -5 -30
-4 -50 1 -41 12 -39 12 -39 1z"/>
<path d="M4824 3709 c-22 -4 -57 -14 -78 -23 -20 -8 -43 -13 -51 -10 -8 4 -15
2 -15 -4 0 -17 45 -22 205 -21 145 0 155 2 155 19 0 16 -4 18 -28 9 -18 -6
-43 -6 -67 0 -23 5 -31 9 -18 10 14 1 20 6 17 14 -5 15 -60 18 -120 6z m65 -8
c20 -13 5 -30 -22 -24 -18 4 -19 3 -7 -6 12 -9 11 -11 -7 -11 -25 0 -27 18 -3
37 18 15 21 15 39 4z m-86 -18 c-7 -2 -19 -2 -25 0 -7 3 -2 5 12 5 14 0 19 -2
13 -5z m-56 -19 c-3 -3 -12 -4 -19 -1 -8 3 -5 6 6 6 11 1 17 -2 13 -5z"/>
<path d="M472 3695 c-6 -8 -30 -19 -52 -25 -22 -6 -40 -15 -40 -20 0 -14 64
-12 78 2 8 8 15 8 26 -1 16 -14 236 -13 236 1 0 3 37 6 82 5 55 -1 83 2 85 10
3 7 11 9 19 6 10 -4 12 0 8 11 -7 17 -9 17 -286 2 -68 -4 -89 -2 -98 9 -16 19
-41 19 -58 0z"/>
<path d="M2598 3663 c23 -2 61 -2 85 0 23 2 4 4 -43 4 -47 0 -66 -2 -42 -4z"/>
<path d="M2938 3663 c7 -3 16 -2 19 1 4 3 -2 6 -13 5 -11 0 -14 -3 -6 -6z"/>
<path d="M4638 3653 c7 -3 16 -2 19 1 4 3 -2 6 -13 5 -11 0 -14 -3 -6 -6z"/>
<path d="M2310 3416 c0 -2 7 -7 16 -10 8 -3 12 -2 9 4 -6 10 -25 14 -25 6z"/>
<path d="M2276 3381 c-3 -5 8 -11 25 -15 47 -9 56 -7 35 9 -22 17 -52 20 -60
6z"/>
<path d="M2105 3260 c27 -12 43 -12 25 0 -8 5 -22 9 -30 9 -10 0 -8 -3 5 -9z"/>
<path d="M2090 3240 c0 -5 5 -10 10 -10 6 0 10 5 10 10 0 6 -4 10 -10 10 -5 0
-10 -4 -10 -10z"/>
<path d="M2090 3210 c0 -5 13 -16 29 -24 27 -14 29 -14 34 4 3 11 1 20 -4 20
-5 0 -9 -6 -9 -12 -1 -8 -6 -6 -14 5 -14 18 -36 23 -36 7z"/>
<path d="M1633 2562 c-26 -28 -27 -35 -13 -63 17 -30 26 -23 38 29 13 57 5 68
-25 34z"/>
<path d="M6205 2570 c3 -5 15 -10 26 -10 10 0 19 5 19 10 0 6 -12 10 -26 10
-14 0 -23 -4 -19 -10z"/>
<path d="M6280 2570 c0 -5 5 -10 10 -10 6 0 10 5 10 10 0 6 -4 10 -10 10 -5 0
-10 -4 -10 -10z"/>
<path d="M6341 2576 c12 -10 59 -15 59 -6 0 5 -14 10 -32 10 -17 0 -29 -2 -27
-4z"/>
<path d="M5600 2560 c0 -5 7 -7 15 -4 8 4 15 8 15 10 0 2 -7 4 -15 4 -8 0 -15
-4 -15 -10z"/>
<path d="M5763 2563 c9 -2 23 -2 30 0 6 3 -1 5 -18 5 -16 0 -22 -2 -12 -5z"/>
<path d="M5928 2563 c6 -2 18 -2 25 0 6 3 1 5 -13 5 -14 0 -19 -2 -12 -5z"/>
<path d="M6103 2563 c9 -2 23 -2 30 0 6 3 -1 5 -18 5 -16 0 -22 -2 -12 -5z"/>
<path d="M5947 2544 c-2 -2 -403 -8 -1142 -19 -203 -3 -390 -8 -414 -10 -37
-4 -42 -3 -32 9 10 12 4 14 -43 13 -55 -1 -73 -11 -38 -20 10 -3 6 -5 -10 -6
-16 -1 -28 4 -28 12 0 9 -2 9 -8 -1 -7 -10 -13 -10 -33 0 -16 8 -48 11 -89 9
-61 -5 -63 -5 -25 -12 32 -5 25 -6 -37 -8 -42 0 -80 4 -83 9 -9 14 -25 12 -20
-2 4 -9 -10 -14 -45 -15 -27 -1 -50 2 -50 7 0 6 -17 9 -37 9 l-38 -2 35 -7
c25 -5 5 -8 -70 -10 -58 -1 -109 -1 -115 0 -20 5 -83 5 -80 0 2 -3 -56 -6
-128 -7 -73 -2 -235 -6 -362 -9 -126 -4 -248 -6 -270 -4 -22 1 -47 2 -55 1 -8
-1 -87 -4 -175 -7 -111 -3 -155 -2 -145 5 20 14 7 14 -25 -1 -19 -9 -28 -9
-37 0 -15 15 -88 16 -88 1 0 -8 -19 -10 -57 -7 -32 3 -98 -1 -148 -9 -49 -7
-112 -12 -139 -11 -48 3 -50 2 -58 -28 -6 -25 -15 -33 -40 -38 -68 -14 -108
-17 -108 -6 0 13 -27 13 -35 -1 -4 -5 0 -18 9 -27 9 -11 13 -27 10 -42 -5 -24
-5 -24 10 -6 9 11 16 25 16 32 0 11 107 41 115 32 4 -5 14 -175 15 -249 0 -57
4 -72 27 -102 16 -20 36 -47 45 -59 16 -22 17 -13 14 167 -1 105 2 205 6 223
l9 32 202 0 c240 0 833 14 1482 35 722 23 1467 37 1477 27 4 -4 7 -177 6 -383
l-3 -374 -42 -3 c-39 -3 -42 -1 -45 25 l-3 28 -19 -35 c-11 -19 -21 -29 -23
-22 -3 6 -11 12 -19 12 -9 0 -12 5 -9 10 3 6 -1 10 -10 10 -9 0 -14 -4 -11 -9
3 -4 -9 -5 -27 -2 -20 4 -33 14 -35 25 -2 10 0 16 5 13 5 -3 10 5 11 19 2 30
-15 32 -20 2 -2 -12 -9 -24 -17 -26 -14 -5 -13 21 4 73 6 20 6 20 -6 0 -12
-19 -12 -19 -20 0 -9 20 -9 20 -8 0 2 -34 0 -38 -15 -26 -12 10 -19 8 -38 -9
-55 -50 -68 -65 -68 -80 0 -8 -11 -39 -25 -69 -22 -47 -28 -53 -50 -49 -13 3
-22 1 -19 -3 3 -5 15 -9 27 -9 18 0 20 -2 7 -11 -13 -9 -13 -10 1 -6 15 5 146
-27 157 -38 11 -10 -65 -4 -145 13 -73 16 -116 32 -85 32 6 0 9 7 6 15 -4 8
-1 15 5 15 9 0 9 5 1 20 -15 29 -31 15 -23 -20 8 -40 -11 -39 -51 3 -44 47
-78 59 -183 65 -79 4 -93 7 -98 23 -4 10 -4 23 0 28 3 5 1 13 -5 16 -8 5 -7
11 1 21 6 8 9 17 5 21 -3 3 1 14 10 24 10 11 12 19 5 24 -19 11 -12 25 13 25
14 0 28 5 31 10 3 6 23 19 43 31 26 14 29 18 12 13 -54 -14 -90 -16 -90 -5 0
18 -25 13 -50 -11 -21 -20 -35 -23 -105 -23 -44 0 -89 -4 -100 -8 -13 -6 -16
-6 -7 1 11 8 11 10 0 15 -17 6 -68 -3 -68 -12 0 -10 -103 -5 -131 7 -21 8 -31
7 -47 -4 -11 -8 -27 -11 -36 -8 -25 9 -19 -11 7 -25 12 -6 14 -9 5 -7 -50 14
-88 17 -106 7 -14 -7 -23 -8 -27 -1 -3 5 -1 10 4 10 6 0 11 3 11 8 0 10 -98 6
-137 -6 -22 -7 -33 -7 -35 0 -2 6 -25 12 -51 13 l-47 2 28 -17 c29 -18 82 -76
82 -90 0 -5 12 -13 28 -18 20 -6 33 -5 51 7 13 8 42 18 65 21 l41 6 -45 13
c-25 7 -56 18 -70 23 l-25 11 28 9 c21 8 33 6 45 -4 33 -27 71 -40 99 -35 130
26 263 47 288 45 26 -3 32 -10 56 -72 27 -72 37 -83 67 -70 25 11 72 13 72 3
0 -5 5 -9 11 -9 5 0 8 4 4 9 -3 5 0 13 6 17 8 5 9 3 5 -5 -5 -8 0 -14 13 -18
45 -12 17 -20 -71 -23 -51 -2 -104 -2 -118 0 -41 4 -326 4 -470 0 -75 -3 -142
0 -150 5 -24 15 -197 18 -295 5 -175 -23 -221 -24 -228 -7 -4 11 -2 14 7 11 8
-3 17 0 22 7 4 7 3 10 -2 7 -5 -3 -25 3 -44 13 -19 11 -30 19 -25 20 6 0 -3 7
-20 14 -19 9 -24 14 -12 15 9 0 17 5 17 11 0 19 68 97 90 104 11 4 20 10 20
14 0 13 -73 22 -81 10 -7 -12 -89 -32 -97 -24 -3 3 2 5 11 5 9 0 17 5 17 12 0
6 -3 8 -7 5 -3 -4 -12 -2 -20 4 -13 11 -15 9 -17 -20 -1 -9 -15 -16 -36 -19
-19 -2 -37 -7 -40 -12 -3 -5 -13 -3 -22 4 -14 10 -11 12 19 13 39 1 60 21 40
39 -16 16 -181 29 -172 14 4 -6 14 -10 23 -9 30 3 42 -1 42 -11 0 -7 -19 -8
-52 -5 -57 7 -57 6 20 -38 17 -9 61 -40 98 -67 37 -28 70 -50 73 -50 3 0 12
-4 19 -9 11 -7 8 -17 -14 -52 -15 -24 -31 -47 -37 -51 -5 -3 -29 -37 -52 -75
-23 -37 -47 -67 -54 -65 -7 1 -10 -2 -6 -8 3 -5 1 -10 -4 -10 -6 0 -11 -6 -11
-13 0 -8 -9 -22 -21 -33 l-21 -19 7 40 c3 22 11 62 16 89 5 27 7 51 5 54 -12
11 -145 45 -181 45 -116 0 -285 -23 -285 -39 0 -3 33 -2 73 2 39 4 86 8 102 9
17 1 43 5 58 10 17 4 37 3 50 -3 12 -6 32 -14 45 -17 18 -5 22 -13 22 -44 0
-57 -11 -101 -25 -101 -7 0 -12 6 -11 14 0 8 -3 14 -9 13 -12 -2 -7 -40 7 -48
6 -4 7 -29 4 -59 -5 -45 -12 -58 -44 -86 -41 -36 -54 -42 -46 -19 4 9 0 15
-10 15 -9 0 -13 -6 -10 -14 3 -9 -3 -17 -15 -21 -11 -3 -23 -14 -26 -24 -3
-10 -13 -18 -23 -17 -11 0 -18 -7 -20 -22 -2 -12 -13 -27 -24 -33 -17 -9 -19
-17 -14 -52 11 -71 29 -147 35 -147 12 0 31 55 31 87 0 18 4 33 8 33 5 0 15
12 23 28 8 15 19 32 24 39 30 37 37 43 45 43 6 0 10 -4 10 -10 0 -5 -5 -10
-11 -10 -5 0 -8 -4 -5 -8 2 -4 -4 -26 -14 -49 -32 -72 -34 -91 -4 -46 29 44
50 50 31 9 -7 -13 -14 -23 -18 -20 -7 4 -29 -40 -29 -59 0 -7 -7 -24 -14 -39
-9 -18 -14 -52 -12 -95 2 -60 8 -77 46 -140 23 -40 61 -89 84 -110 53 -50 191
-116 228 -111 15 3 28 1 28 -3 0 -4 9 -5 20 -2 24 6 25 -4 4 -32 -11 -15 -27
-20 -76 -21 -34 0 -73 5 -87 12 -44 22 -125 57 -138 60 -44 9 -133 127 -164
219 -11 33 -10 -250 2 -303 10 -49 11 -50 54 -55 172 -19 514 47 589 115 22
20 70 21 107 2 40 -20 79 -106 79 -172 0 -102 -18 -117 -202 -174 -58 -18
-104 -37 -101 -42 4 -5 -5 -6 -19 -3 -17 5 -43 -2 -79 -20 -30 -14 -69 -27
-87 -28 -18 -1 -35 -5 -39 -8 -3 -4 874 -7 1950 -7 l1957 0 0 628 0 628 -50
49 c-27 26 -46 53 -43 58 3 6 1 7 -4 4 -6 -4 -14 0 -17 9 -3 8 -10 13 -15 10
-5 -3 -14 1 -21 10 -7 8 -26 24 -41 35 l-28 19 4 -30 c3 -22 1 -29 -8 -23 -7
4 -21 9 -32 10 -11 2 -24 8 -29 13 -6 6 -18 10 -29 10 -10 0 -16 4 -13 9 3 5
0 8 -7 7 -15 -1 -17 5 -17 52 0 27 3 33 10 22 5 -8 10 -11 10 -6 0 5 12 -1 27
-15 21 -19 25 -20 20 -6 -4 10 -7 23 -7 29 0 6 -7 7 -15 4 -10 -4 -19 2 -25
18 -11 31 -44 45 -35 15 5 -15 4 -19 -4 -15 -6 4 -11 3 -11 -3 0 -5 5 -12 10
-14 6 -3 5 -4 -2 -3 -7 1 -14 12 -16 24 -2 11 -10 26 -18 32 -8 7 -14 21 -14
31 0 11 -4 19 -10 19 -5 0 -10 5 -10 10 0 6 21 10 47 10 72 0 46 9 -43 15
-101 7 -144 15 -144 27 0 6 -13 8 -30 6 -26 -4 -30 -1 -30 19 0 15 -4 22 -11
18 -6 -4 -8 -13 -5 -21 3 -8 0 -14 -7 -14 -14 0 -87 -65 -87 -77 0 -5 5 -14
11 -20 29 -29 -185 -27 -288 3 -30 9 -68 13 -84 10 -25 -5 -31 -1 -46 27 l-16
32 -9 -31 c-7 -27 -12 -31 -33 -26 -26 5 -35 22 -11 22 10 0 14 20 15 82 1 45
6 134 11 198 5 63 10 208 10 321 l0 206 113 6 c61 4 200 7 308 7 108 0 325 3
482 7 l287 6 0 39 0 39 -226 -3 c-124 -2 -226 -4 -227 -4z m-2070 -720 c-3 -3
-12 -4 -19 -1 -8 3 -5 6 6 6 11 1 17 -2 13 -5z m329 -37 c-8 -19 -12 -38 -8
-41 3 -3 -2 -6 -11 -6 -9 0 -19 5 -22 10 -3 6 -14 10 -25 10 -13 0 -17 5 -13
20 7 28 30 43 50 35 12 -5 14 -9 6 -12 -16 -6 -17 -23 -3 -23 6 0 16 11 22 25
17 38 21 22 4 -18z m-373 26 c-7 -2 -19 -2 -25 0 -7 3 -2 5 12 5 14 0 19 -2
13 -5z m-393 -35 c0 -5 -7 -3 -15 6 -8 8 -15 18 -15 22 0 3 7 1 15 -6 8 -7 15
-17 15 -22z m333 25 c-7 -2 -19 -2 -25 0 -7 3 -2 5 12 5 14 0 19 -2 13 -5z
m-308 -63 c3 -6 -1 -7 -9 -4 -18 7 -21 14 -7 14 6 0 13 -4 16 -10z m-670 -60
c3 -5 -1 -10 -9 -10 -9 0 -16 5 -16 10 0 6 4 10 9 10 6 0 13 -4 16 -10z m2962
-27 c-10 -22 -13 -24 -15 -9 -2 10 2 22 10 27 19 12 19 12 5 -18z m-2932 7
c-4 -6 -2 -17 4 -24 9 -11 5 -16 -18 -24 -22 -8 -33 -8 -37 0 -4 6 -3 8 3 5 6
-4 13 2 16 13 3 11 0 20 -6 20 -16 0 15 20 31 20 7 0 10 -5 7 -10z m1142 -40
c7 0 18 -18 24 -40 11 -36 59 -85 59 -60 0 5 -4 10 -10 10 -5 0 -10 4 -10 10
0 5 16 2 35 -8 36 -18 39 -39 9 -73 -8 -9 -11 -19 -7 -22 3 -4 1 -7 -5 -7 -11
0 -16 13 -13 33 0 4 -4 7 -10 7 -6 0 -8 7 -4 18 4 11 3 14 -4 7 -6 -6 -6 -28
0 -60 10 -53 2 -165 -12 -165 -4 0 -11 17 -14 38 -11 62 -29 103 -52 122 -14
10 -25 32 -27 51 -2 19 -4 37 -5 41 -2 10 -69 30 -125 36 -54 6 -83 6 -318 0
-82 -1 -148 -1 -148 2 0 3 12 13 28 23 24 16 25 18 5 14 -13 -3 -23 -1 -23 4
0 12 43 12 56 0 5 -5 55 -5 119 0 61 5 116 7 123 4 6 -2 12 0 12 5 0 9 156 17
255 13 28 -1 55 -2 62 -3z m1957 -16 c3 -9 6 -23 5 -32 0 -10 -5 -5 -11 11 -9
26 -11 27 -24 10 -9 -12 -13 -13 -14 -5 0 8 -5 10 -12 6 -9 -5 -9 -2 1 9 17
21 47 22 55 1z m-2633 -25 c7 -15 5 -23 -11 -36 -11 -10 -20 -23 -20 -29 0 -7
-22 -34 -50 -62 -55 -56 -55 -54 -39 -114 10 -37 8 -49 -10 -88 -19 -40 -22
-43 -27 -22 -4 12 -10 22 -15 22 -13 0 -11 -12 6 -34 8 -10 12 -23 9 -28 -7
-11 32 -74 79 -125 50 -54 58 -101 28 -166 -20 -44 -41 -68 -27 -31 11 28 25
145 20 159 -3 7 -23 26 -45 41 -21 14 -39 32 -39 38 0 7 -17 48 -39 92 -40 83
-92 144 -123 144 -19 0 -98 37 -98 45 0 19 158 -48 177 -75 8 -11 20 -20 28
-20 8 0 12 -6 9 -13 -3 -8 2 -14 11 -14 8 0 15 1 15 1 0 1 -4 16 -9 34 -6 20
-6 32 0 32 5 0 9 5 9 11 0 5 -5 7 -10 4 -7 -4 -9 3 -6 19 3 15 1 24 -3 22 -4
-3 -17 3 -27 13 -21 19 -64 34 -64 22 0 -4 6 -13 13 -20 10 -10 9 -11 -5 -6
-10 4 -18 11 -18 15 0 4 -12 10 -26 13 -20 3 -24 1 -19 -11 3 -9 3 -13 -1 -9
-4 4 -13 2 -21 -4 -10 -9 -13 -8 -13 5 0 13 -4 15 -19 6 -26 -13 -34 -13 -25
2 4 7 3 8 -5 4 -6 -4 -9 -12 -5 -17 8 -13 -68 0 -77 13 -13 20 -70 27 -122 13
-28 -7 -54 -12 -55 -10 -10 9 13 26 48 36 32 10 48 9 79 -1 28 -9 49 -10 77
-2 l39 10 -38 -1 c-21 0 -42 4 -46 9 -14 14 -25 78 -13 70 6 -3 12 -2 14 4 4
11 431 68 471 62 15 -3 32 -13 38 -23z m1008 17 c31 -8 78 -17 104 -21 26 -3
62 -12 80 -20 61 -30 92 -48 112 -66 24 -21 82 -38 71 -20 -12 19 20 12 39 -9
10 -11 25 -22 34 -25 19 -6 41 -58 41 -97 0 -29 -25 -45 -34 -22 -3 8 -11 14
-17 14 -6 0 -19 8 -28 18 -31 33 -97 72 -123 72 -15 0 -38 4 -52 10 -17 6 -26
6 -26 0 0 -6 -12 -3 -27 7 -26 17 -26 17 -21 -4 3 -12 0 -30 -8 -40 -9 -12
-13 -13 -14 -5 0 19 -20 4 -20 -15 0 -10 6 -14 20 -10 12 3 20 0 20 -7 0 -14
-38 -38 -50 -31 -5 3 -12 0 -16 -6 -4 -6 0 -15 8 -20 12 -7 15 -21 11 -63 -4
-48 -2 -56 21 -74 14 -11 26 -23 26 -27 0 -4 -7 -2 -15 5 -12 10 -15 9 -15 -5
0 -14 -3 -15 -15 -5 -13 11 -14 10 -9 -4 4 -12 0 -16 -15 -16 -12 0 -21 6 -21
14 0 8 -5 18 -12 22 -7 5 -9 1 -6 -13 3 -13 -1 -24 -13 -31 -27 -17 -48 -15
-26 2 12 10 15 16 7 21 -6 4 -9 13 -7 19 3 7 -3 17 -12 23 -9 6 -17 23 -19 38
-1 16 -9 36 -18 46 -8 9 -17 32 -19 50 -2 19 -1 28 2 22 3 -9 10 -10 22 -3 10
5 21 6 25 3 3 -3 6 2 7 13 0 14 3 12 11 -8 9 -27 28 -39 28 -18 0 6 -4 10 -10
10 -5 0 -7 7 -3 16 3 9 0 20 -8 25 -12 7 -12 9 1 9 13 0 13 1 0 10 -22 15 2
27 45 24 24 -2 35 1 35 11 0 10 -12 13 -47 10 -72 -5 -90 8 -98 69 -4 28 -10
56 -14 61 -9 15 -8 55 2 55 5 0 35 -7 66 -14z m1655 -12 c3 -8 2 -12 -4 -9 -6
3 -10 10 -10 16 0 14 7 11 14 -7z m-106 -23 c20 -11 21 -14 7 -27 -8 -9 -15
-22 -15 -30 0 -8 -4 -12 -10 -9 -5 3 -10 -1 -10 -9 0 -9 5 -16 12 -16 6 0 9
-2 7 -5 -3 -2 -22 0 -43 6 -28 8 -35 14 -27 22 17 17 13 26 -9 20 -17 -5 -18
-2 -10 28 6 19 10 36 10 39 0 3 5 -3 11 -14 8 -13 8 -20 0 -25 -7 -5 -2 -12
14 -19 41 -19 61 4 30 35 -8 8 -12 19 -9 25 4 6 9 7 13 1 3 -6 16 -15 29 -22z
m-361 -18 c79 -32 101 -64 133 -192 11 -43 -5 -29 -35 31 -12 24 -25 41 -29
38 -4 -3 -12 3 -17 13 -6 9 -14 17 -19 17 -5 0 -7 -8 -4 -17 3 -10 -2 -6 -11
10 -17 29 -58 38 -69 15 -4 -7 -4 -3 -2 9 4 22 -17 38 -35 27 -5 -3 -9 0 -9 5
0 6 -5 11 -11 11 -7 0 -9 -9 -5 -22 9 -29 14 -51 15 -60 1 -5 8 -8 16 -8 8 0
15 -9 15 -19 0 -11 4 -22 9 -25 5 -4 7 4 5 16 -2 13 4 2 13 -24 9 -28 23 -48
34 -51 21 -6 36 -34 24 -45 -4 -4 -15 3 -25 16 -10 12 -25 22 -34 22 -9 0 -16
5 -16 10 0 14 -27 12 -34 -2 -3 -7 -4 -2 -3 12 1 14 8 24 15 22 10 -2 10 2 2
19 -14 25 -47 59 -57 58 -5 0 -12 7 -18 16 -7 12 -6 19 5 28 26 21 22 37 -8
31 -40 -8 -90 44 -66 69 15 15 161 -5 221 -30z m-386 17 c37 -10 54 -33 62
-85 5 -28 4 -28 -9 -10 -11 14 -17 16 -22 8 -6 -9 -20 -8 -60 3 -57 17 -68 30
-58 69 7 28 28 31 87 15z m593 -15 c-4 -8 -10 -12 -15 -9 -14 8 -10 24 6 24 9
0 12 -6 9 -15z m-51 -2 c-7 -2 -21 -2 -30 0 -10 3 -4 5 12 5 17 0 24 -2 18 -5z
m329 -16 c16 -14 24 -28 19 -35 -5 -9 -11 -5 -19 13 -7 14 -20 25 -31 25 -11
0 -23 5 -26 10 -12 19 30 10 57 -13z m-28 -24 c10 4 12 0 8 -16 -3 -12 -7 -16
-10 -9 -2 6 -12 12 -21 12 -10 0 -18 7 -18 15 0 11 4 12 14 4 7 -6 19 -9 27
-6z m-189 -33 c3 -5 -1 -10 -10 -10 -9 0 -13 5 -10 10 3 6 8 10 10 10 2 0 7
-4 10 -10z m235 -16 c0 -2 -7 -4 -15 -4 -8 0 -15 4 -15 10 0 5 7 7 15 4 8 -4
15 -8 15 -10z m-928 -39 c15 -20 23 -23 33 -15 8 6 11 18 8 26 -3 8 0 14 6 14
17 0 13 -40 -4 -46 -8 -4 -15 -12 -15 -19 0 -7 -6 -18 -14 -24 -11 -9 -17 -8
-29 4 -16 15 -39 20 -50 9 -3 -4 0 -13 8 -21 21 -21 18 -56 -6 -76 -11 -10
-22 -17 -24 -15 -5 6 -25 47 -25 51 0 3 9 7 21 10 12 3 18 10 14 17 -3 6 -8
24 -10 40 -4 26 -1 30 20 30 18 0 25 5 25 20 0 27 18 25 42 -5z m-2438 -20
c41 -17 46 -30 14 -38 -24 -7 -72 28 -62 44 7 11 5 12 48 -6z m2766 -10 c7 -8
8 -15 2 -15 -5 0 -15 7 -22 15 -7 8 -8 15 -2 15 5 0 15 -7 22 -15z m801 -38
c24 -4 45 -21 58 -44 15 -29 9 -29 -42 1 -23 13 -58 27 -77 31 -30 7 -32 9
-15 15 11 5 29 6 41 3 11 -2 27 -5 35 -6z m-2251 -44 c0 -7 -4 -13 -10 -13 -5
0 -10 12 -10 28 0 21 2 24 10 12 5 -8 10 -21 10 -27z m-1279 -16 c-8 -8 -11
-7 -11 4 0 20 13 34 18 19 3 -7 -1 -17 -7 -23z m-47 5 c-6 -4 -13 -15 -17 -24
-3 -10 -11 -18 -16 -18 -14 0 -7 34 9 42 21 9 38 10 24 0z m2850 -19 c12 -16
14 -24 6 -21 -16 5 -46 48 -34 48 5 0 18 -12 28 -27z m-2921 -18 c-19 -25 -43
-40 -43 -27 0 12 39 52 51 52 5 0 2 -11 -8 -25z m2177 4 c0 -6 -4 -7 -10 -4
-5 3 -10 11 -10 16 0 6 5 7 10 4 6 -3 10 -11 10 -16z m750 -30 c36 -9 50 -52
27 -83 -11 -15 -17 -17 -35 -7 -30 16 -28 30 3 26 14 -1 25 3 25 9 0 12 -34
45 -60 59 -15 7 -1 6 40 -4z m-2590 -81 c0 -5 4 -7 9 -4 5 3 14 -1 21 -9 10
-12 9 -15 -7 -15 -10 0 -26 9 -36 20 -21 25 -22 31 -2 24 8 -4 15 -10 15 -16z
m1663 9 c10 -26 -8 -36 -20 -11 -9 19 -8 24 2 24 7 0 15 -6 18 -13z m-1981
-77 c3 -52 -5 -67 -16 -27 -9 33 -7 77 3 77 5 0 11 -23 13 -50z m-52 -52 c0
-5 -9 -8 -20 -8 -19 0 -28 28 -13 43 6 7 32 -21 33 -35z m2560 -37 l-1 -26
-19 24 c-21 25 -18 44 5 34 8 -3 15 -17 15 -32z m-2580 -75 c0 -8 -7 -16 -15
-20 -17 -6 -18 -4 -9 18 8 20 24 21 24 2z m580 -42 c0 -2 -7 -4 -15 -4 -8 0
-15 4 -15 10 0 5 7 7 15 4 8 -4 15 -8 15 -10z m-793 -16 c-3 -8 -6 -5 -6 6 -1
11 2 17 5 13 3 -3 4 -12 1 -19z m333 -2 c0 -2 -7 -7 -16 -10 -8 -3 -12 -2 -9
4 6 10 25 14 25 6z m-334 -66 c-7 -10 -3 -9 10 3 23 19 44 22 44 7 0 -6 -12
-15 -27 -21 -15 -6 -31 -16 -35 -22 -4 -7 -6 2 -4 18 2 17 5 39 6 50 l1 20 8
-20 c5 -12 4 -26 -3 -35z m930 -13 c-23 -57 -55 -64 -41 -10 4 15 10 22 12 16
6 -18 23 -16 23 2 0 8 -4 15 -10 15 -5 0 -10 4 -10 10 0 5 7 7 15 4 11 -5 14
-1 9 12 -5 17 -5 17 6 2 8 -13 7 -26 -4 -51z m-596 33 c0 -5 -5 -10 -11 -10
-5 0 -7 5 -4 10 3 6 8 10 11 10 2 0 4 -4 4 -10z m144 -55 c-9 -23 -23 1 -16
27 4 17 6 18 13 5 5 -8 6 -23 3 -32z m-185 4 c-19 -12 -24 -2 -8 17 9 11 14
13 17 4 3 -7 -2 -16 -9 -21z m505 -5 c-21 -32 -25 -30 -11 5 6 17 14 28 19 25
4 -3 1 -16 -8 -30z m292 30 c26 -7 46 -57 30 -74 -8 -9 -8 -14 2 -17 6 -3 12
-14 11 -26 0 -22 0 -22 -9 1 -15 36 -37 23 -32 -20 1 -3 -5 -9 -13 -12 -9 -3
-15 0 -15 8 0 8 -10 21 -22 29 l-23 16 25 20 c14 12 31 19 38 16 7 -3 12 5 12
21 0 17 -4 23 -12 18 -6 -4 -29 -10 -50 -14 -29 -6 -38 -4 -38 7 0 23 53 39
96 27z m-996 -104 c0 -5 -7 -10 -15 -10 -8 0 -15 5 -15 10 0 6 7 10 15 10 8 0
15 -4 15 -10z m740 -18 c0 -10 -7 -27 -15 -38 -16 -21 -20 -8 -9 34 8 26 24
29 24 4z m-326 -36 c-3 -8 -13 -17 -22 -21 -13 -5 -13 -2 3 15 21 24 26 25 19
6z m276 -16 c0 -5 -2 -10 -4 -10 -3 0 -8 5 -11 10 -3 6 -1 10 4 10 6 0 11 -4
11 -10z m-414 -37 c-10 -10 -19 5 -10 18 6 11 8 11 12 0 2 -7 1 -15 -2 -18z
m144 14 c0 -8 -11 -24 -25 -37 -29 -27 -35 -9 -9 28 17 25 34 29 34 9z m-300
-17 c-8 -5 -17 -7 -19 -4 -3 3 1 9 9 14 8 5 17 7 19 4 3 -3 -1 -9 -9 -14z
m870 -45 c0 -23 -9 -58 -20 -80 -11 -22 -20 -49 -20 -61 0 -12 -7 -24 -15 -28
-8 -3 -15 -12 -15 -21 0 -18 -9 -19 -31 -2 -14 11 -15 19 -5 60 6 26 14 47 19
47 4 0 5 5 2 10 -7 12 40 121 58 132 17 10 27 -11 27 -57z m-130 -2 c0 -11 -6
-10 -31 2 -17 9 -33 14 -36 11 -5 -5 -33 18 -33 28 0 2 12 6 28 8 29 4 72 -25
72 -49z m-520 -3 c0 -11 -4 -20 -9 -20 -5 0 -7 9 -4 20 3 11 7 20 9 20 2 0 4
-9 4 -20z m723 -167 c20 -81 44 -154 52 -163 17 -19 19 -30 6 -30 -14 0 -49
91 -77 198 -36 137 -37 142 -27 142 5 0 25 -66 46 -147z m-795 130 c-10 -2
-26 -2 -35 0 -10 3 -2 5 17 5 19 0 27 -2 18 -5z m586 -69 c-25 -32 -29 -48
-34 -123 -6 -109 -22 -92 -28 30 l-4 86 38 31 c49 41 66 27 28 -24z m125 -223
c-1 -24 -2 -24 -8 5 -4 17 -11 37 -15 45 -4 8 0 5 8 -5 9 -11 16 -31 15 -45z
m-184 -21 c-4 -6 -18 -16 -32 -21 -14 -5 -23 -12 -20 -16 7 -7 -36 -43 -52
-43 -6 0 -11 5 -11 10 0 6 4 10 8 10 5 0 17 7 28 16 10 8 13 13 7 9 -7 -3 -13
-3 -13 2 0 8 82 51 89 47 1 -2 0 -8 -4 -14z m182 -52 c-3 -7 -5 -2 -5 12 0 14
2 19 5 13 2 -7 2 -19 0 -25z m-287 2 c-24 -15 -37 -11 -16 5 11 8 22 12 25 9
3 -3 -1 -9 -9 -14z m283 -74 c-4 -20 -8 -22 -18 -13 -9 8 -10 16 -3 25 17 19
26 14 21 -12z m1144 -11 c-15 -16 -22 -11 -13 10 3 9 10 13 16 10 6 -4 5 -11
-3 -20z"/>
<path d="M2960 1550 c0 -5 7 -7 15 -4 8 4 15 8 15 10 0 2 -7 4 -15 4 -8 0 -15
-4 -15 -10z"/>
<path d="M3078 1553 c7 -3 16 -2 19 1 4 3 -2 6 -13 5 -11 0 -14 -3 -6 -6z"/>
<path d="M2801 1527 c2 -1 12 -9 22 -16 14 -12 17 -11 17 3 0 10 -8 16 -22 16
-12 0 -19 -1 -17 -3z"/>
<path d="M2888 1443 c7 -3 16 -2 19 1 4 3 -2 6 -13 5 -11 0 -14 -3 -6 -6z"/>
<path d="M3145 1320 c3 -5 8 -10 11 -10 2 0 4 5 4 10 0 6 -5 10 -11 10 -5 0
-7 -4 -4 -10z"/>
<path d="M4327 1389 c7 -7 15 -10 18 -7 3 3 -2 9 -12 12 -14 6 -15 5 -6 -5z"/>
<path d="M4356 1305 c-3 -9 -6 -22 -5 -28 0 -7 5 -1 10 12 5 13 8 26 5 28 -2
2 -6 -3 -10 -12z"/>
<path d="M4307 1268 c18 -18 36 -29 39 -25 10 10 -36 57 -55 57 -11 0 -6 -10
16 -32z"/>
<path d="M4360 1190 c0 -5 7 -10 16 -10 8 0 12 5 9 10 -3 6 -10 10 -16 10 -5
0 -9 -4 -9 -10z"/>
<path d="M5786 1501 c-4 -7 -5 -15 -2 -18 9 -9 19 4 14 18 -4 11 -6 11 -12 0z"/>
<path d="M5340 1454 c0 -9 5 -14 12 -12 18 6 21 28 4 28 -9 0 -16 -7 -16 -16z"/>
<path d="M4970 1290 c20 -13 33 -13 25 0 -3 6 -14 10 -23 10 -15 0 -15 -2 -2
-10z"/>
<path d="M3478 2513 c7 -3 16 -2 19 1 4 3 -2 6 -13 5 -11 0 -14 -3 -6 -6z"/>
<path d="M3035 2500 c-3 -6 1 -7 9 -4 18 7 21 14 7 14 -6 0 -13 -4 -16 -10z"/>
<path d="M583 2304 c-18 -57 -15 -88 3 -39 8 22 13 49 12 60 -2 13 -7 6 -15
-21z"/>
<path d="M480 2298 c0 -13 -9 -43 -20 -67 -22 -48 -25 -65 -10 -56 6 3 10 1
10 -4 0 -6 -4 -11 -8 -11 -18 0 -28 -169 -25 -410 6 -396 8 -440 53 -1035 4
-55 17 -142 29 -194 11 -52 21 -108 21 -125 0 -17 11 -52 25 -78 14 -26 25
-54 25 -63 0 -8 4 -15 9 -15 5 0 12 -15 16 -33 8 -38 17 -72 41 -149 17 -57
18 -58 54 -58 l37 0 -29 137 c-17 76 -34 154 -38 173 -5 19 -17 80 -29 135
-11 55 -39 170 -61 255 -22 85 -49 206 -60 268 -54 304 -61 353 -66 427 -4 53
1 134 15 240 14 111 21 216 21 345 0 102 3 217 6 256 4 48 3 73 -5 78 -7 5
-11 -1 -11 -16z"/>
<path d="M1706 2225 c4 -8 8 -15 10 -15 2 0 4 7 4 15 0 8 -4 15 -10 15 -5 0
-7 -7 -4 -15z"/>
<path d="M280 2052 c-158 -38 -271 -70 -278 -77 -15 -15 13 -15 72 0 36 9 71
13 78 9 7 -4 9 -3 5 1 -9 10 211 67 230 61 13 -5 37 19 31 31 -1 5 -64 -7
-138 -25z"/>
<path d="M385 1986 c-4 -20 -11 -36 -15 -36 -9 0 -26 -44 -19 -47 2 -1 -6 -12
-18 -25 -16 -17 -23 -40 -26 -88 -5 -66 -14 -100 -26 -100 -3 0 -7 -16 -8 -36
-1 -20 -6 -41 -12 -47 -5 -5 -7 -16 -4 -25 5 -11 3 -13 -7 -7 -9 5 -11 4 -6
-3 4 -7 -1 -34 -11 -61 -13 -39 -21 -48 -33 -42 -8 5 -42 3 -75 -4 -48 -10
-65 -10 -92 2 l-33 13 0 -205 c0 -113 4 -205 9 -205 5 0 25 7 44 15 42 17 107
20 107 5 0 -6 -11 -37 -25 -70 -38 -91 -34 -121 23 -180 49 -50 132 -193 132
-227 0 -10 18 -55 39 -98 l40 -80 2 65 c1 36 3 276 3 535 1 259 7 585 13 725
7 140 10 256 8 258 -2 2 -7 -12 -10 -32z m-285 -576 c-24 -8 -24 -8 -2 -9 12
-1 22 -6 22 -12 0 -7 -7 -8 -17 -4 -10 4 -26 10 -35 12 -32 9 -19 23 20 22 33
-1 34 -2 12 -9z m74 -46 c3 -8 2 -12 -4 -9 -6 3 -10 10 -10 16 0 14 7 11 14
-7z"/>
<path d="M2543 2003 c9 -2 23 -2 30 0 6 3 -1 5 -18 5 -16 0 -22 -2 -12 -5z"/>
<path d="M2526 1971 c-4 -5 -2 -12 3 -15 5 -4 12 -2 15 3 4 5 2 12 -3 15 -5 4
-12 2 -15 -3z"/>
<path d="M2480 1959 c0 -5 5 -7 10 -4 6 3 10 8 10 11 0 2 -4 4 -10 4 -5 0 -10
-5 -10 -11z"/>
<path d="M2390 1941 c0 -6 5 -13 10 -16 6 -3 10 -15 10 -25 0 -20 17 -36 28
-25 3 3 1 10 -6 14 -10 6 -10 11 3 21 12 10 15 10 15 -4 0 -9 5 -16 10 -16 6
0 10 7 10 15 0 8 -2 15 -4 15 -2 0 -20 7 -40 15 -20 8 -36 11 -36 6z"/>
<path d="M2376 1913 c5 -5 12 -12 16 -18 4 -6 8 -2 8 8 0 9 -7 17 -17 17 -9 0
-12 -3 -7 -7z"/>
<path d="M2868 1893 c7 -3 16 -2 19 1 4 3 -2 6 -13 5 -11 0 -14 -3 -6 -6z"/>
<path d="M2765 1880 c3 -5 13 -10 21 -10 8 0 14 5 14 10 0 6 -9 10 -21 10 -11
0 -17 -4 -14 -10z"/>
<path d="M2247 1864 c-18 -10 -44 -14 -70 -11 -53 5 -91 -8 -83 -28 3 -8 9
-22 13 -32 5 -12 3 -14 -8 -7 -15 9 -19 10 -46 13 -16 2 -15 3 2 11 20 9 17
10 -22 10 -5 0 -8 -6 -8 -12 0 -7 -8 -12 -18 -12 -23 2 -22 -17 1 -23 14 -3
17 -12 14 -36 -3 -26 -1 -29 8 -17 9 12 11 8 7 -18 l-4 -33 32 33 c49 51 74
68 80 58 13 -21 27 -9 21 16 -7 26 -6 27 33 20 25 -4 41 -2 41 4 0 5 -5 9 -11
8 -6 -2 -14 3 -16 11 -4 9 0 11 16 6 15 -5 29 0 45 16 38 37 22 50 -27 23z
m-117 -40 c0 -8 -4 -12 -10 -9 -5 3 -10 10 -10 16 0 5 5 9 10 9 6 0 10 -7 10
-16z m-50 -62 c0 -4 -9 -8 -20 -9 -11 -1 -18 2 -15 8 7 11 35 12 35 1z"/>
<path d="M3670 1865 c-10 -12 -10 -19 -2 -27 9 -9 12 -7 12 9 0 12 8 24 18 26
14 4 14 5 1 6 -9 0 -22 -6 -29 -14z"/>
<path d="M4951 1871 c-10 -7 -10 -10 -1 -16 6 -4 16 -3 22 3 13 13 -4 23 -21
13z"/>
<path d="M5000 1860 c20 -13 33 -13 25 0 -3 6 -14 10 -23 10 -15 0 -15 -2 -2
-10z"/>
<path d="M3558 1843 c7 -3 16 -2 19 1 4 3 -2 6 -13 5 -11 0 -14 -3 -6 -6z"/>
<path d="M4983 1836 c4 -14 47 -21 47 -8 0 5 -11 12 -25 15 -16 3 -24 0 -22
-7z"/>
<path d="M2283 1825 c-19 -21 -16 -26 12 -21 15 3 25 0 25 -7 0 -7 5 -4 11 6
6 10 8 21 5 25 -13 12 -41 10 -53 -3z"/>
<path d="M6360 1803 c-31 -67 -40 -94 -31 -88 6 3 11 -1 11 -9 0 -10 -6 -13
-15 -10 -8 4 -15 2 -15 -4 0 -14 59 -24 78 -13 16 9 16 10 0 16 -10 4 -15 15
-13 26 2 12 -2 19 -11 19 -22 0 -17 24 11 48 14 12 25 28 24 34 0 9 -2 9 -6
-1 -4 -9 -7 -10 -12 -2 -5 7 -12 1 -21 -16z"/>
<path d="M3145 1810 c-3 -5 -1 -10 4 -10 6 0 11 5 11 10 0 6 -2 10 -4 10 -3 0
-8 -4 -11 -10z"/>
<path d="M4930 1758 c0 -19 2 -20 10 -8 13 19 13 30 0 30 -5 0 -10 -10 -10
-22z"/>
<path d="M2225 1760 c-3 -5 -1 -10 4 -10 6 0 11 5 11 10 0 6 -2 10 -4 10 -3 0
-8 -4 -11 -10z"/>
<path d="M5906 1751 c10 -10 23 -16 27 -14 12 7 -13 33 -31 33 -13 0 -12 -3 4
-19z"/>
<path d="M281 1744 c0 -11 3 -14 6 -6 3 7 2 16 -1 19 -3 4 -6 -2 -5 -13z"/>
<path d="M4521 1743 c-1 -12 4 -25 9 -28 12 -7 12 2 0 30 -8 19 -9 19 -9 -2z"/>
<path d="M2345 1741 c-3 -5 -1 -12 5 -16 5 -3 10 1 10 9 0 18 -6 21 -15 7z"/>
<path d="M0 1705 c0 -16 23 -18 54 -6 18 7 18 8 -5 14 -37 10 -49 8 -49 -8z"/>
<path d="M3180 1701 c0 -5 7 -11 15 -15 9 -3 15 0 15 9 0 8 -7 15 -15 15 -8 0
-15 -4 -15 -9z"/>
<path d="M2088 1693 c7 -3 16 -2 19 1 4 3 -2 6 -13 5 -11 0 -14 -3 -6 -6z"/>
<path d="M4545 1681 c-3 -5 -2 -12 3 -15 5 -3 9 1 9 9 0 17 -3 19 -12 6z"/>
<path d="M100 1670 c0 -5 9 -14 21 -20 24 -13 86 -3 71 12 -12 12 -92 20 -92
8z"/>
<path d="M852 1660 c0 -14 2 -19 5 -12 2 6 2 18 0 25 -3 6 -5 1 -5 -13z"/>
<path d="M2285 1670 c3 -5 8 -10 11 -10 2 0 4 5 4 10 0 6 -5 10 -11 10 -5 0
-7 -4 -4 -10z"/>
<path d="M6274 1669 c-8 -14 16 -31 34 -24 7 3 10 0 7 -6 -4 -6 -24 -7 -51 -3
-30 4 -44 3 -44 -5 0 -6 6 -11 14 -11 7 0 46 -13 86 -30 40 -16 74 -30 76 -30
9 0 3 79 -6 85 -5 3 -10 1 -10 -6 0 -8 -5 -5 -13 5 -7 10 -25 19 -40 19 -15 1
-27 5 -27 10 0 11 -18 8 -26 -4z m86 -29 c0 -5 -8 -10 -17 -10 -15 0 -16 2 -3
10 19 12 20 12 20 0z"/>
<path d="M220 1660 c0 -13 20 -13 40 0 12 8 9 10 -12 10 -16 0 -28 -4 -28 -10z"/>
<path d="M3500 1649 c0 -5 5 -7 10 -4 6 3 10 8 10 11 0 2 -4 4 -10 4 -5 0 -10
-5 -10 -11z"/>
<path d="M0 1616 c0 -33 2 -36 19 -26 11 5 35 10 54 10 50 0 56 26 9 35 -20 3
-47 9 -59 12 -21 5 -23 1 -23 -31z"/>
<path d="M1903 1628 c-6 -13 -16 -59 -22 -104 -8 -66 -7 -91 6 -140 11 -41 14
-84 10 -144 -5 -79 -3 -92 33 -195 21 -60 41 -132 45 -159 3 -27 8 -53 11 -58
13 -20 42 -146 42 -179 0 -42 36 -168 64 -223 26 -51 43 -34 43 42 0 43 -9 75
-34 132 -38 84 -73 281 -59 335 4 17 14 55 23 85 20 68 12 131 -20 182 -30 45
-65 147 -65 186 0 17 -12 45 -30 67 -34 42 -37 57 -15 75 8 7 15 20 15 30 0
17 -27 90 -33 90 -2 0 -8 -10 -14 -22z"/>
<path d="M2090 1646 c0 -2 7 -6 15 -10 8 -3 15 -1 15 4 0 6 -7 10 -15 10 -8 0
-15 -2 -15 -4z"/>
<path d="M2465 1600 c-3 -5 -1 -10 4 -10 6 0 11 5 11 10 0 6 -2 10 -4 10 -3 0
-8 -4 -11 -10z"/>
<path d="M6016 1594 c-5 -14 -4 -15 9 -4 17 14 19 20 6 20 -5 0 -12 -7 -15
-16z"/>
<path d="M737 1583 c-9 -10 -25 -60 -36 -110 -16 -74 -19 -112 -14 -195 4 -57
7 -117 7 -135 1 -17 3 -30 6 -28 8 5 5 -143 -3 -151 -4 -4 -7 8 -7 27 0 26 -3
30 -10 19 -8 -12 -10 -10 -11 10 0 23 -1 24 -9 5 -7 -14 -8 -8 -4 20 4 30 3
36 -5 25 -9 -13 -11 -13 -11 3 0 9 -4 17 -9 17 -5 0 -11 12 -13 27 -2 14 -8
28 -15 30 -19 7 -27 -66 -14 -122 6 -27 12 -59 12 -70 0 -25 18 -47 32 -38 7
4 8 -6 4 -28 -3 -19 -3 -28 0 -20 8 19 44 -79 38 -101 -4 -11 1 -19 15 -23 14
-4 20 -15 20 -35 0 -36 17 -49 23 -18 3 17 4 15 4 -7 0 -16 1 -41 3 -55 2 -21
4 -20 10 10 l7 35 2 -37 c0 -21 5 -38 10 -38 4 0 8 -28 8 -62 0 -35 -2 -53 -4
-40 -2 12 -8 20 -13 17 -5 -3 -15 14 -22 37 -6 24 -16 46 -20 49 -13 9 -48 82
-48 100 0 10 -6 24 -12 31 -18 18 -58 105 -58 124 0 8 -6 25 -14 37 -8 12 -26
90 -40 172 -14 83 -30 166 -35 185 l-9 35 -1 -30 c-1 -43 18 -153 50 -292 6
-27 12 -64 14 -83 4 -46 14 -91 26 -112 5 -10 9 -27 9 -39 0 -13 5 -19 13 -16
9 3 11 -7 9 -37 -2 -31 -1 -37 7 -26 8 12 11 8 11 -18 0 -18 4 -31 9 -28 11 7
21 -17 21 -50 0 -13 5 -24 10 -24 6 0 10 -12 10 -27 0 -16 5 -35 10 -43 8 -13
10 -12 10 3 0 9 5 17 10 17 6 0 10 -6 10 -14 0 -8 -4 -18 -10 -21 -17 -11 -11
-42 15 -73 21 -25 25 -40 25 -90 0 -45 5 -66 21 -86 11 -14 18 -30 15 -35 -5
-8 13 -5 69 8 5 1 12 -6 16 -16 7 -17 8 -17 8 0 1 30 55 19 59 -12 3 -19 6
-21 13 -10 7 11 9 10 9 -4 0 -10 4 -16 9 -12 5 3 12 1 16 -5 3 -5 1 -10 -4
-10 -6 0 -11 -4 -11 -10 0 -5 7 -10 15 -10 12 0 12 -5 0 -40 l-14 -40 469 0
c259 0 470 4 470 8 0 5 -10 17 -21 28 -27 24 -69 112 -62 130 3 8 0 14 -6 14
-6 0 -11 6 -11 13 0 6 -14 47 -31 90 -21 51 -37 77 -48 77 -9 1 21 36 74 85
l90 85 -62 -30 c-34 -17 -74 -35 -89 -40 -33 -13 -312 -90 -324 -90 -15 0 -29
35 -45 109 -9 42 -40 122 -80 203 -71 146 -136 270 -146 278 -4 3 -18 28 -31
55 -13 28 -41 72 -61 99 -31 39 -37 54 -32 77 5 23 -2 40 -34 85 -23 32 -41
68 -41 80 0 27 -11 38 -60 62 -41 20 -60 53 -60 105 0 25 -4 36 -11 31 -6 -3
-9 -15 -6 -25 3 -11 0 -19 -6 -19 -8 0 -7 -3 1 -9 11 -6 8 -21 -12 -71 -14
-34 -24 -66 -21 -69 2 -4 0 -13 -5 -21 -7 -12 -9 -11 -9 5 0 11 -1 67 -1 125
0 117 -7 141 -33 113z m47 -769 c3 -8 2 -12 -4 -9 -6 3 -10 10 -10 16 0 14 7
11 14 -7z m-42 -391 c-3 -16 -7 -22 -10 -15 -4 13 4 42 11 42 2 0 2 -12 -1
-27z m158 -203 c0 -5 -5 -10 -11 -10 -5 0 -7 5 -4 10 3 6 8 10 11 10 2 0 4 -4
4 -10z m30 -30 c0 -5 -2 -10 -4 -10 -3 0 -8 5 -11 10 -3 6 -1 10 4 10 6 0 11
-4 11 -10z"/>
<path d="M2510 1590 c-13 -8 -12 -10 3 -10 9 0 17 5 17 10 0 12 -1 12 -20 0z"/>
<path d="M4635 1590 c-3 -5 -1 -10 4 -10 6 0 11 5 11 10 0 6 -2 10 -4 10 -3 0
-8 -4 -11 -10z"/>
<path d="M6050 1590 c0 -5 5 -10 11 -10 5 0 7 5 4 10 -3 6 -8 10 -11 10 -2 0
-4 -4 -4 -10z"/>
<path d="M6080 1572 c0 -10 22 -32 32 -32 15 0 8 15 -12 28 -11 7 -20 9 -20 4z"/>
<path d="M6386 1535 c4 -8 8 -15 10 -15 2 0 4 7 4 15 0 8 -4 15 -10 15 -5 0
-7 -7 -4 -15z"/>
<path d="M0 1530 c0 -6 7 -10 15 -10 8 0 15 2 15 4 0 2 -7 6 -15 10 -8 3 -15
1 -15 -4z"/>
<path d="M2118 1533 c6 -2 18 -2 25 0 6 3 1 5 -13 5 -14 0 -19 -2 -12 -5z"/>
<path d="M206 1503 c-6 -14 -5 -15 5 -6 7 7 10 15 7 18 -3 3 -9 -2 -12 -12z"/>
<path d="M2351 1494 c0 -11 3 -14 6 -6 3 7 2 16 -1 19 -3 4 -6 -2 -5 -13z"/>
<path d="M2178 1493 c7 -3 16 -2 19 1 4 3 -2 6 -13 5 -11 0 -14 -3 -6 -6z"/>
<path d="M6137 1459 c7 -7 15 -10 18 -7 3 3 -2 9 -12 12 -14 6 -15 5 -6 -5z"/>
<path d="M2148 1435 c-3 -5 -9 -39 -12 -74 l-7 -63 38 -35 c21 -19 30 -32 21
-29 -24 7 -23 -1 2 -14 34 -18 26 35 -10 72 -31 30 -36 44 -22 50 5 2 6 26 3
53 -3 28 -9 46 -13 40z"/>
<path d="M2280 1390 c0 -5 5 -10 10 -10 6 0 10 5 10 10 0 6 -4 10 -10 10 -5 0
-10 -4 -10 -10z"/>
<path d="M1014 1347 c-9 -9 -8 -19 3 -41 14 -26 13 -28 -1 -23 -21 8 -20 5 4
-15 19 -17 19 -16 14 15 -3 18 -6 42 -6 55 0 12 -1 22 -2 22 0 -1 -6 -6 -12
-13z"/>
<path d="M2237 1305 c3 -8 9 -12 14 -9 12 7 11 11 -5 17 -10 4 -13 1 -9 -8z"/>
<path d="M1150 1015 c0 -5 5 -17 10 -25 5 -8 10 -10 10 -5 0 6 -5 17 -10 25
-5 8 -10 11 -10 5z"/>
<path d="M210 708 c0 -8 7 -21 15 -28 19 -16 19 -1 0 24 -12 16 -15 17 -15 4z"/>
<path d="M423 483 c0 -29 -3 -56 -7 -60 -9 -10 -27 19 -21 35 2 6 0 12 -5 12
-5 0 -9 -23 -8 -51 0 -35 -6 -57 -18 -72 -15 -17 -13 -17 9 3 l28 25 -9 -26
c-13 -32 -17 -139 -8 -161 5 -10 1 -27 -9 -42 -27 -41 -13 -87 36 -119 41 -27
99 -36 99 -16 0 6 -5 19 -11 30 -14 28 -27 114 -44 293 -14 159 -34 248 -32
149z m10 -225 c8 -104 13 -151 22 -177 3 -12 2 -21 -3 -21 -12 0 -30 94 -38
204 -5 60 -4 87 3 83 6 -4 13 -44 16 -89z m-33 -162 c-7 -7 -10 1 -9 24 0 33
1 34 10 11 6 -16 6 -28 -1 -35z"/>
<path d="M241 266 c-50 -42 -77 -52 -97 -35 -8 6 -18 8 -22 4 -4 -4 -1 -10 6
-12 17 -6 5 -23 -17 -23 -10 0 -39 -9 -65 -20 -45 -20 -46 -22 -46 -65 0 -25
4 -45 8 -45 11 0 113 65 133 85 9 8 36 30 61 48 48 34 106 97 90 97 -6 0 -29
-15 -51 -34z"/>
<path d="M2981 274 c0 -11 3 -14 6 -6 3 7 2 16 -1 19 -3 4 -6 -2 -5 -13z"/>
<path d="M268 213 c7 -3 16 -2 19 1 4 3 -2 6 -13 5 -11 0 -14 -3 -6 -6z"/>
<path d="M351 174 c0 -11 3 -14 6 -6 3 7 2 16 -1 19 -3 4 -6 -2 -5 -13z"/>
<path d="M295 119 c-4 -5 -14 -8 -24 -4 -14 5 -14 4 2 -12 16 -16 18 -16 33
-1 10 10 12 18 6 22 -6 3 -14 1 -17 -5z"/>
<path d="M225 60 c-3 -5 -2 -10 4 -10 5 0 13 5 16 10 3 6 2 10 -4 10 -5 0 -13
-4 -16 -10z"/>
<path d="M0 25 c0 -16 6 -25 16 -25 11 0 14 5 10 16 -3 9 -6 20 -6 25 0 5 -4
9 -10 9 -5 0 -10 -11 -10 -25z"/>
<path d="M45 40 c3 -5 8 -10 11 -10 2 0 4 5 4 10 0 6 -5 10 -11 10 -5 0 -7 -4
-4 -10z"/>
<path d="M158 19 c-23 -25 -13 -24 19 1 14 11 19 20 12 19 -8 0 -22 -9 -31
-20z"/>
<path d="M341 14 c0 -11 3 -14 6 -6 3 7 2 16 -1 19 -3 4 -6 -2 -5 -13z"/>
<path d="M360 17 c0 -7 12 -14 28 -15 26 -1 26 -1 8 13 -24 18 -36 19 -36 2z"/>
<path d="M520 16 c0 -9 7 -16 16 -16 9 0 14 5 12 12 -6 18 -28 21 -28 4z"/>
<path d="M2220 8 c0 -4 33 -8 73 -7 84 1 79 6 -10 11 -35 3 -63 1 -63 -4z"/>
</g>
</svg>
